<?xml version="1.0" encoding="utf-8"?>
<!-- Generator: Adobe Illustrator 15.0.0, SVG Export Plug-In . SVG Version: 6.00 Build 0)  -->
<!DOCTYPE svg PUBLIC "-//W3C//DTD SVG 1.1//EN" "http://www.w3.org/Graphics/SVG/1.1/DTD/svg11.dtd">
<svg version="1.1" id="Layer_1" focusable="false" xmlns="http://www.w3.org/2000/svg" xmlns:xlink="http://www.w3.org/1999/xlink"
	 x="0px" y="0px" width="80px" height="80px" viewBox="0 0 80 80" enable-background="new 0 0 80 80" xml:space="preserve">
<path d="M59.859,22.357l-9.366-9.366c-1.005-1.004-2.367-1.574-3.784-1.574H23.926c-2.958,0.011-5.359,2.412-5.359,5.369v46.438
	c0,2.957,2.4,5.357,5.359,5.357h32.149c2.957,0,5.357-2.4,5.357-5.357V26.153C61.433,24.735,60.862,23.362,59.859,22.357z
	 M55.639,25.717h-8.494v-8.495L55.639,25.717z M23.926,63.225V16.787h17.859v11.609c0,1.485,1.195,2.679,2.68,2.679h11.61v32.149
	H23.926z"/>
</svg>
